<?xml version="1.0" standalone="no"?>
<!DOCTYPE svg PUBLIC "-//W3C//DTD SVG 20010904//EN"
 "http://www.w3.org/TR/2001/REC-SVG-20010904/DTD/svg10.dtd">
<svg version="1.0" xmlns="http://www.w3.org/2000/svg"
 width="512.000000pt" height="512.000000pt" viewBox="0 0 512.000000 512.000000"
 preserveAspectRatio="xMidYMid meet">

<g transform="translate(0.000000,512.000000) scale(0.100000,-0.100000)"
fill="#000000" stroke="none">
<path d="M2485 4428 c-32 -31 -48 -75 -243 -678 l-210 -645 -693 -5 c-538 -4
-699 -8 -716 -18 -46 -26 -66 -102 -42 -156 7 -14 230 -183 565 -427 305 -221
554 -406 554 -410 0 -4 -95 -299 -211 -655 -195 -600 -210 -652 -200 -685 6
-19 22 -45 35 -58 29 -28 94 -38 127 -20 13 7 268 190 567 406 l542 394 543
-394 c299 -217 554 -400 567 -407 32 -17 97 -6 126 21 13 13 29 39 35 58 10
33 -6 86 -200 685 -116 356 -211 651 -211 655 0 4 249 188 554 409 345 251
557 412 565 428 24 54 4 130 -42 156 -17 10 -178 14 -716 18 l-693 5 -210 645
c-195 603 -211 647 -243 678 -27 25 -43 32 -75 32 -32 0 -48 -7 -75 -32z m240
-985 c88 -273 169 -510 180 -527 38 -57 25 -56 614 -56 l544 0 -429 -311
c-236 -170 -439 -321 -451 -335 -16 -18 -23 -38 -23 -67 0 -26 58 -219 161
-535 88 -272 159 -497 157 -501 -2 -4 -196 134 -433 306 -267 194 -442 315
-462 319 -18 3 -43 2 -57 -2 -14 -5 -217 -148 -452 -319 -235 -170 -430 -311
-434 -313 -4 -1 66 224 156 500 95 290 164 519 164 541 0 21 -5 47 -10 57 -6
11 -207 162 -447 337 l-437 318 553 5 553 5 27 31 c28 31 34 49 279 806 42
131 79 238 82 238 3 0 77 -224 165 -497z"/>
</g>
</svg>
