<?xml version="1.0" standalone="no"?>
<!DOCTYPE svg PUBLIC "-//W3C//DTD SVG 20010904//EN"
 "http://www.w3.org/TR/2001/REC-SVG-20010904/DTD/svg10.dtd">
<svg version="1.0" xmlns="http://www.w3.org/2000/svg"
 width="512.000000pt" height="512.000000pt" viewBox="0 0 512.000000 512.000000"
 preserveAspectRatio="xMidYMid meet">

<g transform="translate(0.000000,512.000000) scale(0.100000,-0.100000)"
fill="#000000" stroke="none">
<path d="M2370 5109 c-603 -68 -1134 -461 -1380 -1019 -136 -309 -174 -678
-105 -1010 123 -589 588 -1503 1283 -2525 106 -155 309 -443 370 -522 l24 -32
42 57 c79 108 293 417 423 612 681 1022 1084 1830 1214 2440 30 142 36 375 14
531 -69 491 -339 918 -755 1196 -161 108 -404 209 -592 247 -167 34 -372 44
-538 25z m467 -318 c553 -113 977 -532 1104 -1090 26 -113 36 -332 20 -442
-17 -113 -62 -289 -110 -429 -141 -407 -442 -998 -811 -1590 -134 -215 -465
-716 -478 -724 -15 -9 -385 537 -577 849 -405 658 -682 1248 -783 1666 -44
182 -56 288 -49 447 9 205 53 375 143 555 215 428 623 717 1100 777 108 14
326 4 441 -19z"/>
<path d="M2355 4430 c-391 -83 -687 -358 -801 -745 -38 -127 -45 -347 -16
-485 67 -325 285 -600 585 -740 163 -76 365 -111 534 -92 268 31 477 133 657
323 140 147 228 313 268 508 29 139 21 358 -16 486 -117 398 -429 680 -830
751 -111 19 -271 17 -381 -6z m353 -296 c155 -32 283 -104 393 -222 129 -138
189 -281 197 -474 5 -142 -12 -231 -67 -344 -94 -193 -239 -324 -431 -389
-414 -141 -854 101 -962 528 -17 66 -19 102 -16 201 8 197 66 339 197 478 179
191 436 274 689 222z"/>
<path d="M2675 3568 c-98 -123 -184 -229 -191 -237 -13 -14 -50 9 -220 136
l-32 23 -86 -119 c-47 -65 -86 -121 -86 -124 0 -7 458 -337 467 -336 10 0 558
686 558 698 0 10 -210 181 -224 181 -5 0 -89 -100 -186 -222z"/>
</g>
</svg>
